<svg id="visual" viewBox="0 0 900 600" width="900" height="600" xmlns="http://www.w3.org/2000/svg" xmlns:xlink="http://www.w3.org/1999/xlink" version="1.1"><g transform="translate(430.1889720371655 306.7478878665167)"><path d="M134.1 -186.7C179.6 -179.5 226.3 -152.1 247.3 -111.4C268.4 -70.7 263.9 -16.7 255.7 36.4C247.5 89.5 235.6 141.7 200.4 162.9C165.3 184.2 106.9 174.6 64.3 160.3C21.7 146 -5 127 -37.6 120.8C-70.3 114.5 -108.8 121.1 -135.7 107.7C-162.6 94.4 -177.8 61.1 -195.5 20.5C-213.3 -20.1 -233.5 -68 -216.5 -96.2C-199.5 -124.4 -145.1 -132.9 -102.8 -141.5C-60.6 -150.2 -30.3 -159.1 7 -170C44.3 -181 88.7 -194 134.1 -186.7" fill="#19456b"></path></g></svg>